<svg xmlns="http://www.w3.org/2000/svg" xmlns:xlink="http://www.w3.org/1999/xlink" width="30" height="30" viewBox="0 0 30 30">
  <defs>
    <clipPath id="clip-path">
      <path id="패스_4718" data-name="패스 4718" d="M5.062,0A5.062,5.062,0,0,0,0,5.061v9.875A5.062,5.062,0,0,0,5.062,20H8.456V12.854H5.948V10H8.456V7.823a3.486,3.486,0,0,1,3.731-3.844,15.168,15.168,0,0,1,2.211.193V6.6H13.153a1.428,1.428,0,0,0-1.61,1.543V10h2.74l-.439,2.855h-2.3V20h3.395A5.063,5.063,0,0,0,20,14.937V5.061A5.063,5.063,0,0,0,14.938,0Z" transform="translate(0 -0.399)" fill="none"/>
    </clipPath>
  </defs>
  <g id="sns_face" transform="translate(-12 -3625.465)">
    <circle id="타원_209" data-name="타원 209" cx="15" cy="15" r="15" transform="translate(12 3625.465)" fill="#fff" opacity="0"/>
    <g id="그룹_14674" data-name="그룹 14674" transform="translate(17 3630.866)">
      <g id="그룹_14673" data-name="그룹 14673" transform="translate(0 -0.001)" clip-path="url(#clip-path)">
        <rect id="사각형_6968" data-name="사각형 6968" width="20" height="20" transform="translate(0 -0.401)" fill="#2575f9"/>
      </g>
    </g>
  </g>
</svg>
