<svg xmlns="http://www.w3.org/2000/svg" width="30" height="30" viewBox="0 0 30 30">
  <g id="sns_you" transform="translate(-13 -3626.465)">
    <circle id="타원_209" data-name="타원 209" cx="15" cy="15" r="15" transform="translate(13 3626.465)" fill="#fff" opacity="0"/>
    <rect id="사각형_6971" data-name="사각형 6971" width="24" height="24" rx="5" transform="translate(16 3629.465)" fill="#fff"/>
    <path id="패스_1488" data-name="패스 1488" d="M20.835,6.1a2.41,2.41,0,0,0-1.7-1.7c-1.5-.4-7.516-.4-7.516-.4S5.6,4,4.1,4.4A2.41,2.41,0,0,0,2.4,6.1,34.283,34.283,0,0,0,2,11.695a34.283,34.283,0,0,0,.4,5.592,2.41,2.41,0,0,0,1.7,1.7c1.5.4,7.516.4,7.516.4s6.015,0,7.516-.4a2.409,2.409,0,0,0,1.7-1.7,34.283,34.283,0,0,0,.4-5.592A34.283,34.283,0,0,0,20.835,6.1ZM9.695,14.194v-5a.481.481,0,0,1,.721-.416l4.328,2.5a.481.481,0,0,1,0,.833l-4.328,2.5A.481.481,0,0,1,9.695,14.194Z" transform="translate(16.382 3629.77)" fill="red"/>
  </g>
</svg>
