<svg id="fire" xmlns="http://www.w3.org/2000/svg" xmlns:xlink="http://www.w3.org/1999/xlink" width="82" height="24" viewBox="0 0 82 24">
  <defs>
    <clipPath id="clip-path">
      <path id="Clip_29522" data-name="Clip 29522" d="M17.036,21.213H4.933v-8.58h12.1v8.58ZM7.769,14.984v3.9h6.409v-3.9Zm9.267-3.158H14.178V0h2.858V4.7h3.343V7.058H17.036v4.767ZM1.8,11.624h0L0,9.589A10.8,10.8,0,0,0,3.435,6.633a7.048,7.048,0,0,0,1.5-4.282V.469h3V2.307a6.24,6.24,0,0,0,1.5,4.031,9.121,9.121,0,0,0,3.32,2.553l-1.614,2.127A12.62,12.62,0,0,1,8.354,9.093a9.334,9.334,0,0,1-1.83-2.33A9.492,9.492,0,0,1,4.679,9.387,13.183,13.183,0,0,1,1.8,11.624Z" fill="none"/>
    </clipPath>
    <clipPath id="clip-path-2">
      <path id="Clip_29525" data-name="Clip 29525" d="M11.9,21.818A6.187,6.187,0,0,1,7.861,20.5a4.579,4.579,0,0,1-1.59-3.584A4.507,4.507,0,0,1,7.861,13.4,5.986,5.986,0,0,1,11.9,12.006a6.142,6.142,0,0,1,4.08,1.391,4.568,4.568,0,0,1,1.591,3.518A4.639,4.639,0,0,1,15.976,20.5,6.352,6.352,0,0,1,11.9,21.818Zm0-7.456a2.575,2.575,0,1,0,0,5.127,2.609,2.609,0,0,0,2.858-2.574,2.511,2.511,0,0,0-.807-1.838A3.13,3.13,0,0,0,11.9,14.362Zm-10.121-2.4h0L0,9.878A12.46,12.46,0,0,0,3.527,6.764,6.716,6.716,0,0,0,4.911,2.733V.469H7.953v2.22A5.958,5.958,0,0,0,9.406,6.72a9.571,9.571,0,0,0,3.3,2.487l-1.613,2.171A12.43,12.43,0,0,1,8.276,9.366a8.444,8.444,0,0,1-1.8-2.242A8.647,8.647,0,0,1,4.7,9.633a14.882,14.882,0,0,1-2.927,2.329Zm16.137-.022H15.054V6.18H11.02V3.72h4.034V0h2.858V11.939Z" fill="none"/>
    </clipPath>
    <clipPath id="clip-path-3">
      <path id="Clip_29528" data-name="Clip 29528" d="M16.944,18.791H14.108v-3.54c-4.612.509-9.266.834-13.832.965L0,13.707H.042c1.6,0,3.293-.034,5.329-.108V12.12a4.559,4.559,0,0,1-2.515-1.389,3.559,3.559,0,0,1-.873-2.375A3.5,3.5,0,0,1,3.32,5.711H.53V3.5h12.4V5.711h-2.7a3.534,3.534,0,0,1,.486,5.022,4.337,4.337,0,0,1-2.469,1.359v1.369c2.284-.127,4.145-.269,5.855-.447V0h2.836V7.08h3.227V9.431H16.944v9.36ZM6.755,6.606A1.835,1.835,0,0,0,4.7,8.356,1.826,1.826,0,0,0,6.755,10.08c1.227,0,2.051-.693,2.051-1.724A1.835,1.835,0,0,0,6.755,6.606ZM9.544,2.422H3.9V.087H9.544V2.421Z" fill="none"/>
    </clipPath>
    <clipPath id="clip-path-4">
      <path id="Clip_29531" data-name="Clip 29531" d="M18.535,18.769H15.745V8.22H13.993v9.791H11.227V.267h2.767v5.6h1.752V0h2.789ZM1.775,14.356h0L0,12.322a11.428,11.428,0,0,0,3.09-3.54A11.622,11.622,0,0,0,4.058,3.54H.692V1.211h9.52V3.54h-3.3A10.383,10.383,0,0,0,8.045,8.689a8.561,8.561,0,0,0,3.02,3.114L9.36,13.931A11.228,11.228,0,0,1,7.031,11.8a6.9,6.9,0,0,1-1.476-2.35,10.278,10.278,0,0,1-3.78,4.9Z" fill="none"/>
    </clipPath>
  </defs>
  <rect id="area" width="82" height="24" fill="#fff" opacity="0"/>
  <g id="삼성화재" transform="translate(1.298 1.091)">
    <g id="Group_29523" data-name="Group 29523" transform="translate(0 0)">
      <path id="Clip_29522-2" data-name="Clip 29522" d="M17.036,21.213H4.933v-8.58h12.1v8.58ZM7.769,14.984v3.9h6.409v-3.9Zm9.267-3.158H14.178V0h2.858V4.7h3.343V7.058H17.036v4.767ZM1.8,11.624h0L0,9.589A10.8,10.8,0,0,0,3.435,6.633a7.048,7.048,0,0,0,1.5-4.282V.469h3V2.307a6.24,6.24,0,0,0,1.5,4.031,9.121,9.121,0,0,0,3.32,2.553l-1.614,2.127A12.62,12.62,0,0,1,8.354,9.093a9.334,9.334,0,0,1-1.83-2.33A9.492,9.492,0,0,1,4.679,9.387,13.183,13.183,0,0,1,1.8,11.624Z" fill="none"/>
      <g id="Group_29523-2" data-name="Group 29523" clip-path="url(#clip-path)">
        <path id="Fill_29521" data-name="Fill 29521" d="M0,0H21.487V22.3H0Z" transform="translate(-0.554 -0.545)" fill="#003bdb"/>
      </g>
    </g>
    <g id="Group_29526" data-name="Group 29526" transform="translate(20.206 0)">
      <path id="Clip_29525-2" data-name="Clip 29525" d="M11.9,21.818A6.187,6.187,0,0,1,7.861,20.5a4.579,4.579,0,0,1-1.59-3.584A4.507,4.507,0,0,1,7.861,13.4,5.986,5.986,0,0,1,11.9,12.006a6.142,6.142,0,0,1,4.08,1.391,4.568,4.568,0,0,1,1.591,3.518A4.639,4.639,0,0,1,15.976,20.5,6.352,6.352,0,0,1,11.9,21.818Zm0-7.456a2.575,2.575,0,1,0,0,5.127,2.609,2.609,0,0,0,2.858-2.574,2.511,2.511,0,0,0-.807-1.838A3.13,3.13,0,0,0,11.9,14.362Zm-10.121-2.4h0L0,9.878A12.46,12.46,0,0,0,3.527,6.764,6.716,6.716,0,0,0,4.911,2.733V.469H7.953v2.22A5.958,5.958,0,0,0,9.406,6.72a9.571,9.571,0,0,0,3.3,2.487l-1.613,2.171A12.43,12.43,0,0,1,8.276,9.366a8.444,8.444,0,0,1-1.8-2.242A8.647,8.647,0,0,1,4.7,9.633a14.882,14.882,0,0,1-2.927,2.329Zm16.137-.022H15.054V6.18H11.02V3.72h4.034V0h2.858V11.939Z" transform="translate(0 0)" fill="none"/>
      <g id="Group_29526-2" data-name="Group 29526" transform="translate(0 0)" clip-path="url(#clip-path-2)">
        <path id="Fill_29524" data-name="Fill 29524" d="M0,0H19.02V22.909H0Z" transform="translate(-0.554 -0.545)" fill="#003bdb"/>
      </g>
    </g>
    <g id="Group_29529" data-name="Group 29529" transform="translate(40.603 0)">
      <path id="Clip_29528-2" data-name="Clip 29528" d="M16.944,18.791H14.108v-3.54c-4.612.509-9.266.834-13.832.965L0,13.707H.042c1.6,0,3.293-.034,5.329-.108V12.12a4.559,4.559,0,0,1-2.515-1.389,3.559,3.559,0,0,1-.873-2.375A3.5,3.5,0,0,1,3.32,5.711H.53V3.5h12.4V5.711h-2.7a3.534,3.534,0,0,1,.486,5.022,4.337,4.337,0,0,1-2.469,1.359v1.369c2.284-.127,4.145-.269,5.855-.447V0h2.836V7.08h3.227V9.431H16.944v9.36ZM6.755,6.606A1.835,1.835,0,0,0,4.7,8.356,1.826,1.826,0,0,0,6.755,10.08c1.227,0,2.051-.693,2.051-1.724A1.835,1.835,0,0,0,6.755,6.606ZM9.544,2.422H3.9V.087H9.544V2.421Z" transform="translate(0)" fill="none"/>
      <g id="Group_29529-2" data-name="Group 29529" transform="translate(0)" clip-path="url(#clip-path-3)">
        <path id="Fill_29527" data-name="Fill 29527" d="M0,0H21.28V19.882H0Z" transform="translate(-0.554 -0.545)" fill="#003bdb"/>
      </g>
    </g>
    <g id="Group_29532" data-name="Group 29532" transform="translate(60.87 0)">
      <path id="Clip_29531-2" data-name="Clip 29531" d="M18.535,18.769H15.745V8.22H13.993v9.791H11.227V.267h2.767v5.6h1.752V0h2.789ZM1.775,14.356h0L0,12.322a11.428,11.428,0,0,0,3.09-3.54A11.622,11.622,0,0,0,4.058,3.54H.692V1.211h9.52V3.54h-3.3A10.383,10.383,0,0,0,8.045,8.689a8.561,8.561,0,0,0,3.02,3.114L9.36,13.931A11.228,11.228,0,0,1,7.031,11.8a6.9,6.9,0,0,1-1.476-2.35,10.278,10.278,0,0,1-3.78,4.9Z" transform="translate(0)" fill="none"/>
      <g id="Group_29532-2" data-name="Group 29532" transform="translate(0)" clip-path="url(#clip-path-4)">
        <path id="Fill_29530" data-name="Fill 29530" d="M0,0H19.643V19.86H0Z" transform="translate(-0.554 -0.545)" fill="#003bdb"/>
      </g>
    </g>
  </g>
</svg>
