<svg xmlns="http://www.w3.org/2000/svg" xmlns:xlink="http://www.w3.org/1999/xlink" width="176" height="29.995" viewBox="0 0 176 29.995">
  <defs>
    <clipPath id="clip-path">
      <rect id="사각형_6901" data-name="사각형 6901" width="176" height="29.995" fill="none"/>
    </clipPath>
  </defs>
  <g id="Logo-eng" transform="translate(3 2)">
    <g id="Logo_Eng" transform="translate(-3 -2)">
      <g id="그룹_14518" data-name="그룹 14518" clip-path="url(#clip-path)">
        <path id="패스_4683" data-name="패스 4683" d="M64.457,109.376a1.209,1.209,0,1,0,1.209,1.21,1.21,1.21,0,0,0-1.209-1.21" transform="translate(-53.029 -91.706)" fill="#003cdc"/>
        <path id="패스_4684" data-name="패스 4684" d="M3.766,124.328H5.9v-5.086h5.629v-1.669H5.9v-3.036h5.935v-1.669H3.766Z" transform="translate(-3.158 -94.633)" fill="#003cdc"/>
        <rect id="사각형_6898" data-name="사각형 6898" width="2.061" height="8.629" transform="translate(10.397 21.066)" fill="#003cdc"/>
        <path id="패스_4685" data-name="패스 4685" d="M92.581,130.021a2.5,2.5,0,0,0-1.1.866v-1.074H89.425v8.629h2.061s.01-3.085,0-3.581a4.143,4.143,0,0,1,.242-1.915,2.832,2.832,0,0,1,2.636-1.5v-1.732c-.1-.01-.207-.015-.314-.015a3.5,3.5,0,0,0-1.471.322" transform="translate(-74.978 -108.746)" fill="#003cdc"/>
        <path id="패스_4686" data-name="패스 4686" d="M126.63,128.54a4.619,4.619,0,0,0,0,9.229,4.161,4.161,0,0,0,4.208-3.075H128.7a2.181,2.181,0,0,1-2.068,1.528c-1.087,0-2.14-.782-2.3-2.587h6.692c.012-.157.02-.317.02-.482a4.273,4.273,0,0,0-4.412-4.614m-2.221,3.6a2.228,2.228,0,0,1,4.443,0Z" transform="translate(-102.473 -107.774)" fill="#003cdc"/>
        <path id="패스_4687" data-name="패스 4687" d="M212.15,115.832h-2.122l-1.353,2.185-1.887-1.972c1.093-.663,2.277-1.591,2.277-2.969,0-1.851-1.5-2.681-3.133-2.681a2.943,2.943,0,0,0-3.226,2.82,3.491,3.491,0,0,0,1.117,2.5,4.171,4.171,0,0,0-2.394,3.38c0,2.255,1.864,3.38,3.762,3.38a4.927,4.927,0,0,0,3.669-1.6l1.321,1.381h2.549l-2.766-2.891Zm-6.2-3.729c.692,0,1.23.409,1.175,1.1-.049.612-.65,1.063-1.583,1.586-.617-.689-.846-1.087-.846-1.6a1.15,1.15,0,0,1,1.254-1.084m-.511,8.659a1.744,1.744,0,0,1-1.9-1.777c.042-.918.736-1.477,1.606-2l2.469,2.581a2.831,2.831,0,0,1-2.175,1.193" transform="translate(-168.888 -92.56)" fill="#003cdc"/>
        <path id="패스_4688" data-name="패스 4688" d="M478.172,109.376a1.209,1.209,0,1,0,1.209,1.21,1.21,1.21,0,0,0-1.209-1.21" transform="translate(-399.907 -91.706)" fill="#003cdc"/>
        <rect id="사각형_6899" data-name="사각형 6899" width="2.061" height="8.629" transform="translate(77.234 21.066)" fill="#003cdc"/>
        <path id="패스_4689" data-name="패스 4689" d="M445.283,130.021a2.5,2.5,0,0,0-1.1.866v-1.074h-2.061v8.629h2.061s.01-3.085,0-3.581a4.142,4.142,0,0,1,.242-1.915,2.832,2.832,0,0,1,2.636-1.5v-1.732c-.1-.01-.207-.015-.314-.015a3.5,3.5,0,0,0-1.471.322" transform="translate(-370.7 -108.746)" fill="#003cdc"/>
        <path id="패스_4690" data-name="패스 4690" d="M505.121,129.1a3.333,3.333,0,0,0-2.4.907v-.7h-2.045v8.629h2.045v-4.932c0-1.217.607-2.294,1.878-2.347,1.213-.051,1.637.892,1.651,1.779v5.5H508.3v-5.764a2.986,2.986,0,0,0-3.178-3.075" transform="translate(-419.791 -108.243)" fill="#003cdc"/>
        <path id="패스_4691" data-name="패스 4691" d="M386.055,129.494v.02a3.371,3.371,0,0,0-2.445-.974c-2.463,0-4.092,1.89-4.092,4.615s1.629,4.615,4.092,4.615a3.371,3.371,0,0,0,2.445-.974v.674h2.063v-8.629h-2.063Zm-2.221,6.654c-1.357,0-2.252-1.2-2.252-2.994s.9-2.994,2.252-2.994,2.19,1.34,2.19,2.994-.833,2.994-2.19,2.994" transform="translate(-318.207 -107.773)" fill="#003cdc"/>
        <path id="패스_4692" data-name="패스 4692" d="M300.413,121.607l-3.069-8.739h-3.326v11.461h2.138v-9.17l3.365,9.17H301.3l3.365-9.17v9.17h2.137V112.868h-3.326Z" transform="translate(-246.519 -94.634)" fill="#003cdc"/>
        <path id="패스_4693" data-name="패스 4693" d="M775.424,134.893c0,.993-.231,2.792-1.832,2.792-1.371,0-1.649-1.146-1.649-1.925v-5.377h-2.054v5.7a2.871,2.871,0,0,0,3.076,3.14,3.264,3.264,0,0,0,2.459-.994v.786h2.055v-8.632h-2.055Z" transform="translate(-645.511 -109.319)" fill="#003cdc"/>
        <path id="패스_4694" data-name="패스 4694" d="M829.491,130.017a2.494,2.494,0,0,0-1.1.866v-1.074h-2.061v8.629H828.4s.01-3.085,0-3.581a4.141,4.141,0,0,1,.242-1.915,2.832,2.832,0,0,1,2.635-1.5V129.71q-.153-.015-.314-.015a3.5,3.5,0,0,0-1.471.322" transform="translate(-692.837 -108.742)" fill="#003cdc"/>
        <path id="패스_4695" data-name="패스 4695" d="M926.228,129.1a3.333,3.333,0,0,0-2.4.907v-.7h-2.045v8.629h2.045V133c0-1.217.607-2.294,1.878-2.347,1.213-.051,1.637.892,1.651,1.779v5.5H929.4V132.17a2.986,2.986,0,0,0-3.178-3.075" transform="translate(-772.867 -108.239)" fill="#003cdc"/>
        <path id="패스_4696" data-name="패스 4696" d="M668.255,129.1a3.333,3.333,0,0,0-2.4.907v-.7h-2.045v8.629h2.045V133c0-1.217.607-2.294,1.878-2.347,1.213-.051,1.637.892,1.651,1.779v5.5h2.045V132.17a2.986,2.986,0,0,0-3.178-3.075" transform="translate(-556.57 -108.239)" fill="#003cdc"/>
        <path id="패스_4697" data-name="패스 4697" d="M865.613,129.49v.02a3.371,3.371,0,0,0-2.445-.974c-2.463,0-4.093,1.89-4.093,4.615s1.63,4.615,4.093,4.615a3.371,3.371,0,0,0,2.445-.974v.674h2.063v-8.629h-2.063Zm-2.221,6.654c-1.357,0-2.252-1.2-2.252-2.994s.895-2.994,2.252-2.994,2.19,1.34,2.19,2.994-.833,2.994-2.19,2.994" transform="translate(-720.291 -107.77)" fill="#003cdc"/>
        <path id="패스_4698" data-name="패스 4698" d="M721.754,132.384c-1.666-.417-2.291-.718-2.291-1.3,0-.66.748-1.03,1.519-.984a1.48,1.48,0,0,1,1.548,1.169h1.945c-.142-1.545-1.49-2.731-3.6-2.731-1.946,0-3.589,1.034-3.56,2.665a2.554,2.554,0,0,0,1.983,2.3c1.273.478,2.991.653,3.142,1.47s-.7,1.27-1.657,1.166a1.619,1.619,0,0,1-1.522-1.191h-2.194c.365,1.818,1.817,2.819,3.879,2.819,2.173,0,3.713-1.236,3.676-2.841-.041-1.772-1.988-2.318-2.869-2.539" transform="translate(-601.224 -107.77)" fill="#003cdc"/>
        <rect id="사각형_6900" data-name="사각형 6900" width="2.138" height="11.461" transform="translate(103.519 18.233)" fill="#003cdc"/>
        <path id="패스_4699" data-name="패스 4699" d="M979.516,130.154a1.952,1.952,0,0,1,1.869,1.627h2.047a3.924,3.924,0,0,0-4-3.245c-2.508,0-4.2,1.846-4.2,4.614h0c0,2.768,1.688,4.614,4.2,4.614a3.924,3.924,0,0,0,4-3.245h-2.047a1.952,1.952,0,0,1-1.869,1.628c-1.383,0-2.231-1.217-2.231-3s.848-3,2.231-3" transform="translate(-817.682 -107.771)" fill="#003cdc"/>
        <path id="패스_4700" data-name="패스 4700" d="M559.251,128.539a4.619,4.619,0,0,0,0,9.229,4.162,4.162,0,0,0,4.208-3.075h-2.14a2.181,2.181,0,0,1-2.068,1.528c-1.087,0-2.14-.782-2.3-2.587h6.692c.012-.157.02-.317.02-.482a4.273,4.273,0,0,0-4.413-4.614m-2.221,3.6a2.228,2.228,0,0,1,4.443,0Z" transform="translate(-465.203 -107.773)" fill="#003cdc"/>
        <path id="패스_4701" data-name="패스 4701" d="M1039.213,133.153a4.417,4.417,0,1,0-4.412,4.615,4.162,4.162,0,0,0,4.208-3.075h-2.14a2.181,2.181,0,0,1-2.068,1.528c-1.087,0-2.14-.782-2.3-2.587h6.692c.012-.157.02-.317.02-.482m-6.634-1.015a2.229,2.229,0,0,1,4.443,0Z" transform="translate(-863.926 -107.773)" fill="#003cdc"/>
        <path id="패스_4702" data-name="패스 4702" d="M134.961,27.515v-5.7a2.936,2.936,0,0,0-3.179-3.134,3.965,3.965,0,0,0-2.957,1.218,2.933,2.933,0,0,0-2.62-1.218,3.636,3.636,0,0,0-2.4.856v-.648h-2.045v8.63h2.045V22.582c0-1.217.568-2.293,1.839-2.346a1.6,1.6,0,0,1,1.692,1.792v5.486h2.045V22.582c0-1.217.568-2.293,1.839-2.346a1.585,1.585,0,0,1,1.69,1.751v5.527Z" transform="translate(-102.094 -15.659)" fill="#003cdc"/>
        <path id="패스_4703" data-name="패스 4703" d="M265.991,28.6h2.054V19.965h-2.054v4.51c0,.993-.231,2.792-1.832,2.792-1.371,0-1.649-1.146-1.649-1.925V19.965h-2.054v5.7a2.871,2.871,0,0,0,3.077,3.139,3.265,3.265,0,0,0,2.459-.994Z" transform="translate(-218.379 -16.74)" fill="#003cdc"/>
        <path id="패스_4704" data-name="패스 4704" d="M319.084,22.583c0-1.217.607-2.294,1.878-2.347,1.213-.051,1.638.892,1.651,1.779v5.5h2.045V21.752a2.986,2.986,0,0,0-3.178-3.075,3.332,3.332,0,0,0-2.4.907v-.7h-2.045v8.63h2.045Z" transform="translate(-265.82 -15.66)" fill="#003cdc"/>
        <path id="패스_4705" data-name="패스 4705" d="M212.05,25.716a1.62,1.62,0,0,1-1.522-1.191h-2.194c.365,1.818,1.817,2.819,3.879,2.819,2.173,0,3.713-1.236,3.676-2.842-.041-1.772-1.989-2.318-2.869-2.539-1.666-.417-2.292-.718-2.292-1.3,0-.66.748-1.03,1.519-.984a1.48,1.48,0,0,1,1.548,1.169h1.946c-.142-1.545-1.491-2.731-3.6-2.731-1.946,0-3.59,1.034-3.56,2.665a2.554,2.554,0,0,0,1.983,2.3c1.274.478,2.992.653,3.142,1.47s-.7,1.27-1.657,1.166" transform="translate(-174.677 -15.188)" fill="#003cdc"/>
        <path id="패스_4706" data-name="패스 4706" d="M378.054,25.886V18.415H376v.671a3.209,3.209,0,0,0-2.371-.969c-2.451,0-3.8,1.713-3.8,4.334s1.354,4.335,3.8,4.335a3.211,3.211,0,0,0,2.394-.992v.388c0,1.173-.445,2.212-1.849,2.291a1.819,1.819,0,0,1-2.021-1.129h-2.021c.264,1.354,1.426,2.8,3.9,2.8,2.636,0,4.018-1.827,4.018-4.262m-4.16-.716c-1.323-.024-2.014-1.145-2.014-2.72,0-1.591.705-2.722,2.056-2.722s2.035,1.143,2.035,2.71c0,1.551-.752,2.707-2.077,2.731" transform="translate(-310.08 -15.189)" fill="#003cdc"/>
        <path id="패스_4707" data-name="패스 4707" d="M65.72,26.391v.654h2.063V18.416H65.72v.674a3.372,3.372,0,0,0-2.445-.974c-2.463,0-4.093,1.89-4.093,4.615s1.629,4.615,4.093,4.615a3.372,3.372,0,0,0,2.445-.974ZM63.5,25.725c-1.358,0-2.253-1.2-2.253-2.994s.9-2.994,2.253-2.994,2.19,1.34,2.19,2.994-.833,2.994-2.19,2.994" transform="translate(-49.623 -15.189)" fill="#003cdc"/>
        <path id="패스_4708" data-name="패스 4708" d="M5.078,5.109C3.105,4.5,2.732,3.956,2.655,3.288A1.552,1.552,0,0,1,4.413,1.66,1.818,1.818,0,0,1,6.294,3.2H8.551C8.268,1.017,6.518,0,4.421,0S.3,1.147.3,3.345c0,2.1,1.771,2.838,3.7,3.48,1.832.609,2.518.987,2.518,1.936a1.741,1.741,0,0,1-1.94,1.609,2.125,2.125,0,0,1-2.3-1.531H0a4.1,4.1,0,0,0,4.389,3.317c3.012,0,4.45-1.728,4.45-3.584,0-2.1-1.862-2.88-3.762-3.463" fill="#003cdc"/>
      </g>
    </g>
  </g>
</svg>
