<svg width="21" height="20" viewBox="0 0 21 20" fill="none" xmlns="http://www.w3.org/2000/svg">
<g id="Icon/Common/20">
<path id="&#237;&#140;&#168;&#236;&#138;&#164; 2156" fill-rule="evenodd" clip-rule="evenodd" d="M5.10892 4.63706L5.8423 3.90462C6.10155 3.64554 6.45311 3.5 6.81969 3.5C7.18626 3.5 7.53782 3.64554 7.79707 3.90462L9.26522 5.37088C9.39365 5.49921 9.49553 5.65158 9.56504 5.81929C9.63455 5.98699 9.67032 6.16674 9.67032 6.34827C9.67032 6.5298 9.63455 6.70955 9.56504 6.87725C9.49553 7.04495 9.39365 7.19732 9.26522 7.32566C9.00605 7.58481 8.86046 7.93626 8.86046 8.3027C8.86046 8.66915 9.00605 9.02059 9.26522 9.27975L10.2675 10.2817L11.2393 11.2532C11.3674 11.3815 11.5195 11.4834 11.687 11.5529C11.8545 11.6224 12.034 11.6581 12.2153 11.6581C12.3967 11.6581 12.5762 11.6224 12.7437 11.5529C12.9112 11.4834 13.0633 11.3815 13.1913 11.2532C13.3194 11.1248 13.4715 11.023 13.639 10.9535C13.8065 10.884 13.986 10.8482 14.1673 10.8482C14.3487 10.8482 14.5282 10.884 14.6957 10.9535C14.8632 11.023 15.0153 11.1248 15.1433 11.2532L16.5949 12.7042C16.7233 12.8326 16.8252 12.9849 16.8947 13.1527C16.9642 13.3204 17 13.5001 17 13.6816C17 13.8632 16.9642 14.0429 16.8947 14.2106C16.8252 14.3783 16.7233 14.5307 16.5949 14.659L15.8622 15.3915C15.3149 15.9389 14.6129 16.3053 13.8507 16.4412C13.0885 16.5771 12.303 16.476 11.6002 16.1515C10.0055 15.4278 8.5523 14.4265 7.30838 13.1941C6.07455 11.9489 5.07232 10.494 4.34858 8.89764C4.02398 8.19502 3.92283 7.40977 4.0588 6.64787C4.19477 5.88597 4.5613 5.18412 5.10892 4.63706Z" fill="#0068FF"/>
</g>
</svg>
