<svg id="fire" xmlns="http://www.w3.org/2000/svg" xmlns:xlink="http://www.w3.org/1999/xlink" width="70" height="22" viewBox="0 0 70 22">
  <defs>
    <clipPath id="clip-path">
      <path id="Clip_29522" data-name="Clip 29522" d="M14.16,17.825H4.1v-7.21H14.16v7.209Zm-7.7-5.234v3.277h5.327V12.59Zm7.7-2.654H11.784V0H14.16V3.951h2.779v1.98H14.16V9.936ZM1.5,9.767h0L0,8.057A9.01,9.01,0,0,0,2.855,5.573,5.963,5.963,0,0,0,4.1,1.975V.394H6.591V1.939A5.278,5.278,0,0,0,7.837,5.326,7.59,7.59,0,0,0,10.6,7.471L9.255,9.258A10.488,10.488,0,0,1,6.944,7.641,7.831,7.831,0,0,1,5.423,5.683a7.977,7.977,0,0,1-1.533,2.2A10.975,10.975,0,0,1,1.5,9.767Z" fill="none"/>
    </clipPath>
    <clipPath id="clip-path-2">
      <path id="Clip_29525" data-name="Clip 29525" d="M9.888,18.333a5.107,5.107,0,0,1-3.354-1.109,3.866,3.866,0,0,1-1.321-3.011,3.805,3.805,0,0,1,1.321-2.956,4.942,4.942,0,0,1,3.354-1.169,5.071,5.071,0,0,1,3.391,1.169A3.856,3.856,0,0,1,14.6,14.213a3.917,3.917,0,0,1-1.322,3.011A5.242,5.242,0,0,1,9.888,18.333Zm0-6.265a2.161,2.161,0,1,0,0,4.308,2.178,2.178,0,0,0,2.376-2.163,2.121,2.121,0,0,0-.671-1.545A2.584,2.584,0,0,0,9.888,12.068ZM1.476,10.051h0L0,8.3A10.4,10.4,0,0,0,2.932,5.683,5.684,5.684,0,0,0,4.082,2.3V.394H6.611V2.26A5.039,5.039,0,0,0,7.818,5.647a7.965,7.965,0,0,0,2.74,2.09L9.217,9.561A10.335,10.335,0,0,1,6.879,7.87,7.083,7.083,0,0,1,5.384,5.986,7.267,7.267,0,0,1,3.909,8.094a12.392,12.392,0,0,1-2.433,1.957Zm13.413-.019H12.513V5.193H9.159V3.126h3.353V0h2.376V10.032Z" fill="none"/>
    </clipPath>
    <clipPath id="clip-path-3">
      <path id="Clip_29528" data-name="Clip 29528" d="M14.084,15.79H11.727V12.815c-3.834.428-7.7.7-11.5.811L0,11.518H.035c1.329,0,2.737-.029,4.43-.091V10.184A3.779,3.779,0,0,1,2.374,9.017a3.01,3.01,0,0,1-.726-2A2.951,2.951,0,0,1,2.76,4.8H.441V2.938H10.75V4.8H8.508a2.992,2.992,0,0,1,.4,4.22A3.6,3.6,0,0,1,6.86,10.161v1.15c1.9-.107,3.445-.226,4.867-.376V0h2.357V5.949h2.682V7.925H14.084v7.865ZM5.614,5.551A1.531,1.531,0,0,0,3.909,7.022,1.523,1.523,0,0,0,5.614,8.47,1.507,1.507,0,0,0,7.32,7.022,1.531,1.531,0,0,0,5.614,5.551ZM7.933,2.035H3.238V.073H7.933V2.034Z" fill="none"/>
    </clipPath>
    <clipPath id="clip-path-4">
      <path id="Clip_29531" data-name="Clip 29531" d="M15.406,15.771H13.087V6.907H11.631v8.227h-2.3V.224h2.3V4.932h1.456V0h2.319ZM1.476,12.063h0L0,10.354A9.573,9.573,0,0,0,2.568,7.379a9.858,9.858,0,0,0,.8-4.4H.575V1.018H8.488V2.975H5.749A8.8,8.8,0,0,0,6.687,7.3,7.16,7.16,0,0,0,9.2,9.918L7.78,11.706A9.371,9.371,0,0,1,5.844,9.918,5.806,5.806,0,0,1,4.618,7.943a8.627,8.627,0,0,1-3.142,4.12Z" fill="none"/>
    </clipPath>
  </defs>
  <rect id="area" width="70" height="22" fill="none"/>
  <g id="삼성화재" transform="translate(1.842 1.833)">
    <g id="Group_29523" data-name="Group 29523" transform="translate(0 0)">
      <path id="Clip_29522-2" data-name="Clip 29522" d="M14.16,17.825H4.1v-7.21H14.16v7.209Zm-7.7-5.234v3.277h5.327V12.59Zm7.7-2.654H11.784V0H14.16V3.951h2.779v1.98H14.16V9.936ZM1.5,9.767h0L0,8.057A9.01,9.01,0,0,0,2.855,5.573,5.963,5.963,0,0,0,4.1,1.975V.394H6.591V1.939A5.278,5.278,0,0,0,7.837,5.326,7.59,7.59,0,0,0,10.6,7.471L9.255,9.258A10.488,10.488,0,0,1,6.944,7.641,7.831,7.831,0,0,1,5.423,5.683a7.977,7.977,0,0,1-1.533,2.2A10.975,10.975,0,0,1,1.5,9.767Z" fill="#0b0d0f"/>
      <g id="Group_29523-2" data-name="Group 29523" clip-path="url(#clip-path)">
        <path id="Fill_29521" data-name="Fill 29521" d="M0,0H17.86V18.741H0Z" transform="translate(-0.461 -0.458)" fill="#0b0d0f"/>
      </g>
    </g>
    <g id="Group_29526" data-name="Group 29526" transform="translate(16.795 0)">
      <path id="Clip_29525-2" data-name="Clip 29525" d="M9.888,18.333a5.107,5.107,0,0,1-3.354-1.109,3.866,3.866,0,0,1-1.321-3.011,3.805,3.805,0,0,1,1.321-2.956,4.942,4.942,0,0,1,3.354-1.169,5.071,5.071,0,0,1,3.391,1.169A3.856,3.856,0,0,1,14.6,14.213a3.917,3.917,0,0,1-1.322,3.011A5.242,5.242,0,0,1,9.888,18.333Zm0-6.265a2.161,2.161,0,1,0,0,4.308,2.178,2.178,0,0,0,2.376-2.163,2.121,2.121,0,0,0-.671-1.545A2.584,2.584,0,0,0,9.888,12.068ZM1.476,10.051h0L0,8.3A10.4,10.4,0,0,0,2.932,5.683,5.684,5.684,0,0,0,4.082,2.3V.394H6.611V2.26A5.039,5.039,0,0,0,7.818,5.647a7.965,7.965,0,0,0,2.74,2.09L9.217,9.561A10.335,10.335,0,0,1,6.879,7.87,7.083,7.083,0,0,1,5.384,5.986,7.267,7.267,0,0,1,3.909,8.094a12.392,12.392,0,0,1-2.433,1.957Zm13.413-.019H12.513V5.193H9.159V3.126h3.353V0h2.376V10.032Z" transform="translate(0)" fill="none"/>
      <g id="Group_29526-2" data-name="Group 29526" transform="translate(0)" clip-path="url(#clip-path-2)">
        <path id="Fill_29524" data-name="Fill 29524" d="M0,0H15.809V19.25H0Z" transform="translate(-0.461 -0.458)" fill="#0b0d0f"/>
      </g>
    </g>
    <g id="Group_29529" data-name="Group 29529" transform="translate(33.749)">
      <path id="Clip_29528-2" data-name="Clip 29528" d="M14.084,15.79H11.727V12.815c-3.834.428-7.7.7-11.5.811L0,11.518H.035c1.329,0,2.737-.029,4.43-.091V10.184A3.779,3.779,0,0,1,2.374,9.017a3.01,3.01,0,0,1-.726-2A2.951,2.951,0,0,1,2.76,4.8H.441V2.938H10.75V4.8H8.508a2.992,2.992,0,0,1,.4,4.22A3.6,3.6,0,0,1,6.86,10.161v1.15c1.9-.107,3.445-.226,4.867-.376V0h2.357V5.949h2.682V7.925H14.084v7.865ZM5.614,5.551A1.531,1.531,0,0,0,3.909,7.022,1.523,1.523,0,0,0,5.614,8.47,1.507,1.507,0,0,0,7.32,7.022,1.531,1.531,0,0,0,5.614,5.551ZM7.933,2.035H3.238V.073H7.933V2.034Z" transform="translate(0)" fill="none"/>
      <g id="Group_29529-2" data-name="Group 29529" transform="translate(0)" clip-path="url(#clip-path-3)">
        <path id="Fill_29527" data-name="Fill 29527" d="M0,0H17.687V16.706H0Z" transform="translate(-0.461 -0.458)" fill="#0b0d0f"/>
      </g>
    </g>
    <g id="Group_29532" data-name="Group 29532" transform="translate(50.595 0)">
      <path id="Clip_29531-2" data-name="Clip 29531" d="M15.406,15.771H13.087V6.907H11.631v8.227h-2.3V.224h2.3V4.932h1.456V0h2.319ZM1.476,12.063h0L0,10.354A9.573,9.573,0,0,0,2.568,7.379a9.858,9.858,0,0,0,.8-4.4H.575V1.018H8.488V2.975H5.749A8.8,8.8,0,0,0,6.687,7.3,7.16,7.16,0,0,0,9.2,9.918L7.78,11.706A9.371,9.371,0,0,1,5.844,9.918,5.806,5.806,0,0,1,4.618,7.943a8.627,8.627,0,0,1-3.142,4.12Z" transform="translate(0)" fill="none"/>
      <g id="Group_29532-2" data-name="Group 29532" transform="translate(0)" clip-path="url(#clip-path-4)">
        <path id="Fill_29530" data-name="Fill 29530" d="M0,0H16.327V16.688H0Z" transform="translate(-0.461 -0.458)" fill="#0b0d0f"/>
      </g>
    </g>
  </g>
</svg>
