<svg width="28" height="28" viewBox="0 0 28 28" fill="none" xmlns="http://www.w3.org/2000/svg">
<g clip-path="url(#clip0_2097_9901)">
<rect x="4" y="23" width="19" height="3" rx="1.5" fill="url(#paint0_linear_2097_9901)" fill-opacity="0.32"/>
<path d="M4 15.5V9.5L11.5 7L15.5 6.5L17.5 7.5L19 12L4 15.5Z" fill="white"/>
<path d="M19.4146 3.286L20.2716 0L21.8596 2.736L26.5076 0.608L23.9306 5L26.3156 6.3L23.7776 7.271L26.1426 10.853L23.0176 9.668C22.6765 9.5383 22.39 9.2959 22.2056 8.981L19.5816 4.5C19.3684 4.13489 19.3084 3.70024 19.4146 3.291" fill="#FF6060"/>
<path d="M5.93464 24.8248C5.71586 24.8743 5.48946 24.8803 5.26838 24.8423C5.0473 24.8043 4.83587 24.7231 4.64615 24.6034C4.45644 24.4837 4.29216 24.3279 4.1627 24.1447C4.03324 23.9615 3.94113 23.7546 3.89164 23.5358L3.55664 22.0548L6.88864 21.3008L7.22364 22.7818C7.27317 23.0006 7.27911 23.227 7.24113 23.448C7.20315 23.6691 7.122 23.8806 7.0023 24.0703C6.88261 24.26 6.72671 24.4243 6.54352 24.5537C6.36033 24.6832 6.15343 24.7753 5.93464 24.8248Z" fill="#5A5B63"/>
<path d="M21.8487 21.2231C21.6299 21.2726 21.4035 21.2786 21.1824 21.2406C20.9614 21.2026 20.7499 21.1215 20.5602 21.0018C20.3705 20.8821 20.2062 20.7262 20.0768 20.543C19.9473 20.3598 19.8552 20.1529 19.8057 19.9341L19.4707 18.4531L22.8027 17.7031L23.1377 19.1841C23.1872 19.4029 23.1932 19.6293 23.1552 19.8504C23.1172 20.0715 23.0361 20.2829 22.9164 20.4726C22.7967 20.6623 22.6408 20.8266 22.4576 20.9561C22.2744 21.0855 22.0675 21.1776 21.8487 21.2271" fill="#5A5B63"/>
<path d="M21.178 11.0435C20.903 10.9455 20.6751 10.7473 20.54 10.4885L18.786 7.12546C18.424 6.42966 17.8418 5.87334 17.1303 5.54335C16.4187 5.21337 15.618 5.12831 14.853 5.30146L5.386 7.44046C4.6211 7.61356 3.93502 8.03502 3.43483 8.63904C2.93464 9.24307 2.64847 9.99569 2.621 10.7795L2.486 14.5735C2.47582 14.8652 2.35581 15.1424 2.15 15.3495C1.87754 15.623 1.67865 15.9609 1.57183 16.3319C1.465 16.7029 1.45371 17.0949 1.539 17.4715L2.244 20.5865C2.37831 21.1797 2.74272 21.6953 3.2571 22.0199C3.77148 22.3445 4.39372 22.4515 4.987 22.3175L21.613 18.5545C21.9068 18.488 22.1847 18.3642 22.4307 18.1903C22.6767 18.0164 22.8861 17.7958 23.0468 17.541C23.2076 17.2862 23.3166 17.0022 23.3675 16.7053C23.4185 16.4084 23.4105 16.1043 23.344 15.8105L22.639 12.6965C22.554 12.3198 22.3751 11.9707 22.119 11.6817C21.8628 11.3926 21.5378 11.1731 21.174 11.0435M4.595 14.6255L4.648 10.5065C4.65078 10.29 4.7264 10.0808 4.86266 9.91265C4.99891 9.74447 5.18785 9.62709 5.399 9.57946L15.578 7.27946C15.789 7.23182 16.0099 7.25663 16.2051 7.34988C16.4003 7.44312 16.5584 7.59938 16.654 7.79346L18.476 11.4885L4.595 14.6255Z" fill="#2E83FF"/>
<path d="M7.28406 17.9054C7.3586 18.2348 7.33376 18.579 7.21269 18.8944C7.09162 19.2097 6.87976 19.4821 6.60389 19.6771C6.32802 19.872 6.00054 19.9808 5.66286 19.9896C5.32517 19.9985 4.99245 19.907 4.70676 19.7267C4.42107 19.5465 4.19525 19.2856 4.05784 18.977C3.92044 18.6684 3.87762 18.326 3.93481 17.993C3.992 17.6601 4.14663 17.3516 4.37914 17.1066C4.61165 16.8615 4.9116 16.6909 5.24106 16.6164C5.45985 16.5668 5.68624 16.5609 5.90732 16.5989C6.1284 16.6369 6.33984 16.718 6.52955 16.8377C6.71927 16.9574 6.88354 17.1133 7.013 17.2965C7.14246 17.4797 7.23457 17.6866 7.28406 17.9054Z" fill="white"/>
<path d="M20.9833 14.8048C21.0578 15.1343 21.033 15.4784 20.9119 15.7938C20.7908 16.1091 20.579 16.3815 20.3031 16.5765C20.0272 16.7714 19.6998 16.8802 19.3621 16.889C19.0244 16.8979 18.6917 16.8064 18.406 16.6261C18.1203 16.4459 17.8945 16.185 17.7571 15.8764C17.6197 15.5678 17.5768 15.2254 17.634 14.8925C17.6912 14.5595 17.8459 14.2511 18.0784 14.006C18.3109 13.761 18.6108 13.5904 18.9403 13.5158C19.1591 13.4663 19.3855 13.4603 19.6065 13.4983C19.8276 13.5363 20.0391 13.6174 20.2288 13.7371C20.4185 13.8568 20.5828 14.0127 20.7122 14.1959C20.8417 14.3791 20.9338 14.586 20.9833 14.8048Z" fill="white"/>
</g>
<defs>
<linearGradient id="paint0_linear_2097_9901" x1="4" y1="24.5" x2="23" y2="24.5" gradientUnits="userSpaceOnUse">
<stop stop-color="#D9D9D9"/>
<stop offset="1" stop-color="#D9D9D9" stop-opacity="0"/>
</linearGradient>
<clipPath id="clip0_2097_9901">
<rect width="28" height="28" fill="white"/>
</clipPath>
</defs>
</svg>
