<svg id="_1-icon-2-illustration-10-category-danger" data-name="1-icon-2-illustration-10-category-danger" xmlns="http://www.w3.org/2000/svg" width="28" height="28" viewBox="0 0 28 28">
  <path id="패스_5043" data-name="패스 5043" d="M0,0H28V28H0Z" fill="none" fill-rule="evenodd"/>
  <g id="그룹_15526" data-name="그룹 15526" transform="translate(4.748 4.548)">
    <path id="패스_5044" data-name="패스 5044" d="M9.639,0h.474a7.472,7.472,0,0,1,7.472,7.472v6.761a.712.712,0,0,1-.712.712h-14a.712.712,0,0,1-.712-.712V7.472A7.472,7.472,0,0,1,9.639,0Z" transform="translate(-0.625 0.401)" fill="#ff6060" fill-rule="evenodd"/>
    <path id="패스_5053" data-name="패스 5053" d="M.712,0h17.08A.712.712,0,0,1,18.5.712V4.27a.712.712,0,0,1-.712.712H.712A.712.712,0,0,1,0,4.27V.712A.712.712,0,0,1,.712,0Z" transform="translate(0 13.521)" fill="#7b7e93"/>
    <path id="패스_5054" data-name="패스 5054" d="M2.491,0A2.687,2.687,0,0,1,4.982,2.847,2.687,2.687,0,0,1,2.491,5.693,2.687,2.687,0,0,1,0,2.847,2.687,2.687,0,0,1,2.491,0Z" transform="translate(4.982 2.532)" fill="#fc9191"/>
    <path id="패스_5055" data-name="패스 5055" d="M.712,0h17.08A.712.712,0,0,1,18.5.712V2.135a.712.712,0,0,1-.712.712H.712A.712.712,0,0,1,0,2.135V.712A.712.712,0,0,1,.712,0Z" transform="translate(0 15.656)" fill="#5a5b63"/>
  </g>
</svg>
