<svg id="menu_shotcut_5" xmlns="http://www.w3.org/2000/svg" width="52" height="52" viewBox="0 0 52 52">
  <path id="패스_4943" data-name="패스 4943" d="M0,0H48V48H0Z" fill="none" fill-rule="evenodd"/>
  <path id="패스_4944" data-name="패스 4944" d="M22.285,0h7.43A22.286,22.286,0,0,1,52,22.285v7.43A22.286,22.286,0,0,1,29.715,52H22.284A22.286,22.286,0,0,1,0,29.715V22.284A22.286,22.286,0,0,1,22.285,0Z" fill="#f2f2f5" fill-rule="evenodd"/>
  <g id="그룹_15507" data-name="그룹 15507" transform="translate(13 12)">
    <rect id="사각형_7532" data-name="사각형 7532" width="22.8" height="26.4" rx="3.6" opacity="0.04"/>
    <rect id="사각형_7533" data-name="사각형 7533" width="22.8" height="26.4" rx="3.6" fill="#fff"/>
    <path id="패스_5010" data-name="패스 5010" d="M21.536,22.93h6.38v5.01a.687.687,0,0,1-1.066.575l-2.124-1.4-2.125,1.4a.687.687,0,0,1-1.065-.574V22.929Z" transform="translate(-4.98 -0.568)" fill="#ff8217" fill-rule="evenodd"/>
    <ellipse id="타원_740" data-name="타원 740" cx="5.316" cy="5.238" rx="5.316" ry="5.238" transform="translate(14.43 13.98)" fill="#ffba17"/>
    <path id="패스_5011" data-name="패스 5011" d="M15.583,5.42a.9.9,0,0,1-.9.9H4.57a.9.9,0,0,1,0-1.807H14.68a.9.9,0,0,1,.9.9ZM13.75,9.935a.9.9,0,0,1-.9.9H6.4a.9.9,0,1,1,0-1.807h6.444A.9.9,0,0,1,13.75,9.935Z" transform="translate(1.775 1.023)" fill="#cbcfd8" fill-rule="evenodd"/>
  </g>
</svg>
