<svg width="52" height="52" viewBox="0 0 52 52" fill="none" xmlns="http://www.w3.org/2000/svg">
<g clip-path="url(#clip0_1787_76867)">
<path fill-rule="evenodd" clip-rule="evenodd" d="M22.285 0H29.715C35.6253 0.000265195 41.2934 2.34823 45.4726 6.52742C49.6518 10.7066 51.9997 16.3747 52 22.285V29.715C51.9997 35.6253 49.6518 41.2934 45.4726 45.4726C41.2934 49.6518 35.6253 51.9997 29.715 52H22.284C16.3739 51.9995 10.706 49.6514 6.52706 45.4722C2.34809 41.2931 0.000265169 35.6251 0 29.715L0 22.284C0.00053038 16.3739 2.34861 10.706 6.52777 6.52706C10.7069 2.34809 16.3749 0.000265169 22.285 0Z" fill="#F2F2F5"/>
<rect x="13.1431" y="37.5713" width="24.4286" height="3.85714" rx="1.92857" fill="url(#paint0_linear_1787_76867)" fill-opacity="0.32"/>
<path d="M32.9615 12.2249L34.0634 8L36.1051 11.5177L42.0811 8.78171L38.7678 14.4286L41.8343 16.1L38.5711 17.3484L41.6118 21.9539L37.594 20.4303C37.1554 20.2635 36.7871 19.9519 36.55 19.547L33.1763 13.7857C32.9021 13.3163 32.8249 12.7574 32.9615 12.2313" fill="#FF6060"/>
<path d="M13 29L13.5 20L29.5 16L33.5 23.5L13 29Z" fill="white"/>
<path d="M15.6302 39.9176C15.3489 39.9813 15.0578 39.9889 14.7736 39.9401C14.4893 39.8912 14.2175 39.7869 13.9736 39.633C13.7296 39.4791 13.5184 39.2787 13.352 39.0431C13.1855 38.8076 13.0671 38.5416 13.0035 38.2603L12.5728 36.3562L16.8568 35.3867L17.2875 37.2909C17.3511 37.5722 17.3588 37.8632 17.31 38.1475C17.2611 38.4317 17.1568 38.7036 17.0029 38.9475C16.849 39.1914 16.6486 39.4026 16.413 39.5691C16.1775 39.7355 15.9115 39.8539 15.6302 39.9176Z" fill="#5A5B63"/>
<path d="M36.0911 35.2865C35.8098 35.3501 35.5187 35.3578 35.2345 35.3089C34.9503 35.2601 34.6784 35.1558 34.4345 35.0019C34.1906 34.848 33.9794 34.6475 33.8129 34.412C33.6465 34.1765 33.528 33.9105 33.4644 33.6292L33.0337 31.725L37.3177 30.7607L37.7484 32.6649C37.8121 32.9462 37.8197 33.2373 37.7709 33.5215C37.7221 33.8057 37.6177 34.0776 37.4638 34.3215C37.3099 34.5654 37.1095 34.7766 36.874 34.9431C36.6384 35.1095 36.3724 35.228 36.0911 35.2916" fill="#5A5B63"/>
<path d="M35.2286 22.1983C34.875 22.0724 34.5821 21.8175 34.4084 21.4847L32.1532 17.1609C31.6878 16.2663 30.9392 15.551 30.0244 15.1267C29.1096 14.7025 28.08 14.5931 27.0965 14.8157L14.9246 17.5659C13.9412 17.7885 13.0591 18.3303 12.416 19.1069C11.7729 19.8835 11.405 20.8512 11.3696 21.8589L11.1961 26.7369C11.183 27.112 11.0287 27.4684 10.7641 27.7346C10.4138 28.0863 10.1581 28.5208 10.0207 28.9978C9.88337 29.4748 9.86885 29.9788 9.9785 30.4629L10.8849 34.4679C11.0576 35.2306 11.5262 35.8935 12.1875 36.3109C12.8488 36.7282 13.6489 36.8658 14.4116 36.6935L35.7879 31.8553C36.1657 31.7698 36.523 31.6107 36.8393 31.3872C37.1556 31.1636 37.4248 30.8799 37.6314 30.5523C37.8381 30.2247 37.9782 29.8596 38.0438 29.4778C38.1093 29.096 38.099 28.7051 38.0135 28.3273L37.1071 24.3236C36.9978 23.8393 36.7678 23.3904 36.4385 23.0189C36.1091 22.6473 35.6912 22.365 35.2235 22.1983M13.9076 26.8037L13.9758 21.5079C13.9794 21.2296 14.0766 20.9607 14.2518 20.7444C14.427 20.5282 14.6699 20.3773 14.9414 20.316L28.0286 17.3589C28.3 17.2976 28.584 17.3295 28.835 17.4494C29.0859 17.5693 29.2892 17.7702 29.4121 18.0197L31.7546 22.7705L13.9076 26.8037Z" fill="#2E83FF"/>
<path d="M17.3652 31.021C17.4611 31.4447 17.4291 31.8872 17.2735 32.2926C17.1178 32.6981 16.8454 33.0483 16.4907 33.2989C16.136 33.5496 15.715 33.6894 15.2808 33.7008C14.8467 33.7122 14.4189 33.5946 14.0516 33.3628C13.6842 33.131 13.3939 32.7956 13.2172 32.3988C13.0406 32.0021 12.9855 31.5618 13.059 31.1338C13.1326 30.7057 13.3314 30.3091 13.6303 29.994C13.9293 29.679 14.3149 29.4596 14.7385 29.3638C15.0198 29.3001 15.3109 29.2924 15.5951 29.3413C15.8794 29.3901 16.1512 29.4944 16.3951 29.6483C16.6391 29.8022 16.8503 30.0027 17.0167 30.2382C17.1832 30.4737 17.3016 30.7397 17.3652 31.021Z" fill="white"/>
<path d="M34.9785 27.0347C35.0743 27.4583 35.0424 27.9008 34.8867 28.3063C34.7311 28.7118 34.4587 29.062 34.104 29.3126C33.7493 29.5633 33.3283 29.7031 32.8941 29.7145C32.4599 29.7259 32.0321 29.6082 31.6648 29.3765C31.2975 29.1447 31.0072 28.8093 30.8305 28.4125C30.6538 28.0157 30.5988 27.5755 30.6723 27.1475C30.7459 26.7194 30.9447 26.3228 31.2436 26.0077C31.5425 25.6927 31.9282 25.4733 32.3518 25.3774C32.6331 25.3138 32.9242 25.3061 33.2084 25.3549C33.4927 25.4038 33.7645 25.5081 34.0084 25.662C34.2523 25.8159 34.4636 26.0163 34.63 26.2519C34.7965 26.4874 34.9149 26.7534 34.9785 27.0347Z" fill="white"/>
</g>
<defs>
<linearGradient id="paint0_linear_1787_76867" x1="13.1431" y1="39.4999" x2="37.5716" y2="39.4999" gradientUnits="userSpaceOnUse">
<stop stop-color="#D9D9D9"/>
<stop offset="1" stop-color="#D9D9D9" stop-opacity="0"/>
</linearGradient>
<clipPath id="clip0_1787_76867">
<rect width="52" height="52" fill="white"/>
</clipPath>
</defs>
</svg>
