<svg id="menu_shotcut_1" xmlns="http://www.w3.org/2000/svg" width="52" height="52" viewBox="0 0 52 52">
  <path id="패스_4943" data-name="패스 4943" d="M0,0H48V48H0Z" fill="none" fill-rule="evenodd"/>
  <path id="패스_4944" data-name="패스 4944" d="M22.285,0h7.43A22.286,22.286,0,0,1,52,22.285v7.43A22.286,22.286,0,0,1,29.715,52H22.284A22.286,22.286,0,0,1,0,29.715V22.284A22.286,22.286,0,0,1,22.285,0Z" fill="#f2f2f5" fill-rule="evenodd"/>
  <g id="그룹_15507" data-name="그룹 15507" transform="translate(15 13)">
    <rect id="사각형_7532" data-name="사각형 7532" width="22.8" height="26.4" rx="3.6" opacity="0.04"/>
    <rect id="사각형_7533" data-name="사각형 7533" width="22.8" height="26.4" rx="3.6" fill="#fff"/>
    <path id="패스_4945" data-name="패스 4945" d="M11.72,4.2a1.086,1.086,0,0,1,1.086,1.086V7.414h2.13A1.086,1.086,0,0,1,16.02,8.5V9.9a1.086,1.086,0,0,1-1.086,1.086H12.805v2.13A1.085,1.085,0,0,1,11.72,14.2h-1.4a1.086,1.086,0,0,1-1.086-1.086V10.985H7.106A1.085,1.085,0,0,1,6.02,9.9V8.5A1.086,1.086,0,0,1,7.106,7.414H9.234V5.286A1.086,1.086,0,0,1,10.32,4.2h1.4Z" fill="#ff6060" fill-rule="evenodd"/>
    <rect id="사각형_7534" data-name="사각형 7534" width="9.96" height="1.65" rx="0.825" transform="translate(5.04 16.4)" fill="#cbcfd8"/>
    <rect id="사각형_7535" data-name="사각형 7535" width="5" height="1.65" rx="0.825" transform="translate(5.04 19.7)" fill="#cbcfd8"/>
    <g id="그룹_15513" data-name="그룹 15513" transform="translate(11.219 14.973)">
      <circle id="타원_726" data-name="타원 726" cx="3.5" cy="3.5" r="3.5" transform="translate(2 2)" fill="#fff" opacity="0.2"/>
      <path id="패스_4993" data-name="패스 4993" d="M5.5,2A3.5,3.5,0,0,1,8.538,3.761,3.5,3.5,0,1,1,3.762,8.54,3.5,3.5,0,0,1,5.5,2ZM6.8,3.3A3.5,3.5,0,0,0,3.762,8.539,3.5,3.5,0,0,0,8.538,3.76,3.486,3.486,0,0,0,6.8,3.3Z" fill="#fff" fill-rule="evenodd" opacity="0.4"/>
      <circle id="타원_727" data-name="타원 727" cx="4.25" cy="4.25" r="4.25" transform="translate(1.25 1.25)" fill="none" stroke="#404044" stroke-width="2"/>
      <path id="패스_4994" data-name="패스 4994" d="M8.5,8.5l3.081,2.7" fill="none" stroke="#444" stroke-linecap="round" stroke-width="2" fill-rule="evenodd"/>
    </g>
  </g>
</svg>
