<svg id="menu_shotcut_8" xmlns="http://www.w3.org/2000/svg" width="52" height="52" viewBox="0 0 52 52">
  <path id="패스_4958" data-name="패스 4958" d="M0,0H48V48H0Z" fill="none" fill-rule="evenodd"/>
  <path id="패스_4959" data-name="패스 4959" d="M22.285,0h7.43A22.286,22.286,0,0,1,52,22.285v7.43A22.286,22.286,0,0,1,29.715,52H22.284A22.286,22.286,0,0,1,0,29.715V22.284A22.286,22.286,0,0,1,22.285,0Z" fill="#f2f2f5" fill-rule="evenodd"/>
  <path id="패스_4960" data-name="패스 4960" d="M6,7H42V43H6Z" transform="translate(2 1)" fill="none" fill-rule="evenodd"/>
  <g id="그룹_15509" data-name="그룹 15509" transform="translate(14 12.999)">
    <rect id="사각형_7537" data-name="사각형 7537" width="20.348" height="24" rx="2" fill="#a6caff"/>
    <path id="패스_4961" data-name="패스 4961" d="M5.052,3H21.4a2,2,0,0,1,2,2V20l-3.028,2.976L16.278,27H5.052a2,2,0,0,1-2-2V5a2,2,0,0,1,2-2Z" fill="#dae8ff" fill-rule="evenodd"/>
    <path id="패스_4962" data-name="패스 4962" d="M16.278,27V22a2.017,2.017,0,0,1,2.035-2H23.4" fill="#a6caff" fill-rule="evenodd"/>
    <rect id="사각형_7538" data-name="사각형 7538" width="12.209" height="2" rx="1" transform="translate(7.122 9)" fill="#2e83ff"/>
    <rect id="사각형_7539" data-name="사각형 7539" width="12.209" height="2" rx="1" transform="translate(7.122 13)" fill="#2e83ff"/>
  </g>
</svg>
