<svg id="menu_shotcut_4" xmlns="http://www.w3.org/2000/svg" width="52" height="52" viewBox="0 0 52 52">
  <path id="패스_4966" data-name="패스 4966" d="M0,0H48V48H0Z" fill="none" fill-rule="evenodd"/>
  <path id="패스_4967" data-name="패스 4967" d="M22.285,0h7.43A22.286,22.286,0,0,1,52,22.285v7.43A22.286,22.286,0,0,1,29.715,52H22.284A22.286,22.286,0,0,1,0,29.715V22.284A22.286,22.286,0,0,1,22.285,0Z" fill="#f2f2f5" fill-rule="evenodd"/>
  <g id="그룹_15541" data-name="그룹 15541" transform="translate(1.8 1.8)">
    <path id="패스_4968" data-name="패스 4968" d="M7.2,7.2H40.8V40.8H7.2Z" fill="none" fill-rule="evenodd"/>
    <path id="패스_4969" data-name="패스 4969" d="M12,19.2H36.48a1.2,1.2,0,0,1,1.2,1.2v12a3.6,3.6,0,0,1-3.6,3.6H14.4a3.6,3.6,0,0,1-3.6-3.6v-12A1.2,1.2,0,0,1,12,19.2Z" fill="#75a6ff" fill-rule="evenodd"/>
    <path id="패스_4970" data-name="패스 4970" d="M12,13.2H36.48a1.2,1.2,0,0,1,1.2,1.2V29.76a3.6,3.6,0,0,1-3.6,3.6H14.4a3.6,3.6,0,0,1-3.6-3.6V14.4A1.2,1.2,0,0,1,12,13.2Z" fill="#fff" fill-rule="evenodd"/>
    <path id="패스_4971" data-name="패스 4971" d="M29.347,18.642a.876.876,0,0,1,.572,1l-.025.1-.788,2.525h1.616a.875.875,0,0,1,.1,1.74l-.1.006H29.088a.827.827,0,0,1-.48-.153l-1.165,3.736a.84.84,0,0,1-1.576.1l-.038-.1-1.649-5.27-1.64,5.269a.84.84,0,0,1-1.576.1l-.038-.1L19.76,23.859a.828.828,0,0,1-.38.146l-.1.006H17.647a.875.875,0,0,1-.1-1.74l.1,0h1.616l-.788-2.526a.878.878,0,0,1,.547-1.1.84.84,0,0,1,1.03.469l.036.095,1.644,5.265,1.64-5.265a.84.84,0,0,1,1.576-.1l.037.1,1.65,5.272,1.646-5.271a.843.843,0,0,1,1.066-.564Z" fill="#0068ff"/>
    <path id="패스_4972" data-name="패스 4972" d="M23.257,19.17l-1.526,4.9L20.2,19.17l-.038-.1a.96.96,0,0,0-1.18-.54l-.122.05a1,1,0,0,0-.5,1.2l.738,2.369h-1.45l-.107.007a.994.994,0,0,0,.106,1.979h1.635l.106-.006.12-.022.114-.035.068-.032,1.122,3.594.04.107.063.123a.96.96,0,0,0,1.74-.23l1.525-4.9,1.535,4.9.04.107.067.128a.96.96,0,0,0,1.735-.236l1.122-3.593.12.05a.964.964,0,0,0,.289.044h1.634l.106-.006a.985.985,0,0,0,.861-.987l-.007-.124a.977.977,0,0,0-.96-.868H29.269l.74-2.37.026-.1a1,1,0,0,0-.65-1.143l-.119-.03a.965.965,0,0,0-1.1.672l-1.533,4.9L25.1,19.17l-.04-.106a.96.96,0,0,0-1.8.108Zm6.052-.414a.756.756,0,0,1,.492.863l-.023.092-.786,2.519.114.155h1.616a.755.755,0,0,1,.084,1.5l-.091.005H29.088a.706.706,0,0,1-.41-.13l-.184.062-1.166,3.736a.719.719,0,0,1-1.351.088l-.035-.094L24.3,22.288h-.23l-1.64,5.27a.719.719,0,0,1-1.351.089l-.035-.095-1.164-3.73-.184-.061a.708.708,0,0,1-.325.125l-.091.005H17.647a.754.754,0,0,1-.084-1.5l.092-.006h1.608l.114-.155L18.59,19.7a.758.758,0,0,1,.47-.948.72.72,0,0,1,.883.4l.033.089,1.642,5.259h.229l1.64-5.265a.719.719,0,0,1,1.351-.09l.035.095,1.647,5.266h.229l1.646-5.271a.726.726,0,0,1,.8-.514l.114.028Z" fill="#0068ff"/>
  </g>
</svg>
