<svg id="menu_shotcut_6" xmlns="http://www.w3.org/2000/svg" width="52" height="52" viewBox="0 0 52 52">
  <path id="패스_4995" data-name="패스 4995" d="M0,0H48V48H0Z" fill="none" fill-rule="evenodd"/>
  <path id="패스_4996" data-name="패스 4996" d="M22.285,0h7.43A22.286,22.286,0,0,1,52,22.285v7.43A22.286,22.286,0,0,1,29.715,52H22.284A22.286,22.286,0,0,1,0,29.715V22.284A22.286,22.286,0,0,1,22.285,0Z" fill="#f2f2f5" fill-rule="evenodd"/>
  <g id="_1-icon-2-illustration-11-product-insurance-cyber" data-name="1-icon-2-illustration-11-product-insurance-cyber" transform="translate(8 8)">
    <path id="패스_5012" data-name="패스 5012" d="M0,0H36.172V36.172H0Z" fill="none" fill-rule="evenodd"/>
    <g id="그룹_15520" data-name="그룹 15520" transform="translate(3.617 5.426)">
      <path id="패스_5013" data-name="패스 5013" d="M11,22h9.046v3.617H11Z" transform="translate(-1.053 -2.105)" fill="#868a93"/>
      <path id="패스_5018" data-name="패스 5018" d="M2.713,0H26.225a2.713,2.713,0,0,1,2.713,2.713V18.99A2.713,2.713,0,0,1,26.225,21.7H2.713A2.713,2.713,0,0,1,0,18.99V2.713A2.713,2.713,0,0,1,2.713,0Z" fill="#b4b9c3"/>
      <path id="패스_5014" data-name="패스 5014" d="M3.809,2h21.7A1.809,1.809,0,0,1,27.32,3.809V14.66a1.809,1.809,0,0,1-1.809,1.809H3.809A1.809,1.809,0,0,1,2,14.66V3.809A1.809,1.809,0,0,1,3.809,2Z" transform="translate(-0.191 -0.191)" fill="#dceaff"/>
      <path id="패스_5015" data-name="패스 5015" d="M9,27.809v-.172A1.541,1.541,0,0,1,10.423,26h9.813a1.541,1.541,0,0,1,1.423,1.637v.172Z" transform="translate(-0.861 -2.488)" fill="#b4b9c3"/>
      <path id="패스_5017" data-name="패스 5017" d="M.9,0A.9.9,0,1,1,0,.9.9.9,0,0,1,.9,0Z" transform="translate(13.564 18.086)" fill="#5a5b63"/>
      <path id="패스_5016" data-name="패스 5016" d="M19.2,7.376a.814.814,0,1,1,1.15,1.151l-.126.126-.226.226-.112.111-.2.2-.247.246-.548.548-.479.479-.226.226-2.336,2.335a.814.814,0,0,1-1.166-.014l-2.742-2.887a.814.814,0,1,1,1.18-1.121l2.167,2.282.754-.753.464-.464,1.056-1.055.176-.177.3-.3.128-.129.118-.117.1-.1.226-.226.041-.041.262-.263.076-.075.2-.2Z" transform="translate(-1.121 -0.683)" fill="#0068ff"/>
    </g>
  </g>
</svg>
