<svg id="menu_shotcut_7" xmlns="http://www.w3.org/2000/svg" width="52" height="52" viewBox="0 0 52 52">
  <path id="패스_4954" data-name="패스 4954" d="M0,0H48V48H0Z" fill="none" fill-rule="evenodd"/>
  <path id="패스_4955" data-name="패스 4955" d="M22.285,0h7.43A22.286,22.286,0,0,1,52,22.285v7.43A22.286,22.286,0,0,1,29.715,52H22.284A22.286,22.286,0,0,1,0,29.715V22.284A22.286,22.286,0,0,1,22.285,0Z" fill="#f2f2f5" fill-rule="evenodd"/>
  <g id="그룹_15508" data-name="그룹 15508" transform="translate(2 1.999)">
    <path id="패스_4956" data-name="패스 4956" d="M24.2,11A13.2,13.2,0,1,1,11,24.2,13.2,13.2,0,0,1,24.2,11Zm0,3.3a9.9,9.9,0,1,0,9.9,9.9,9.9,9.9,0,0,0-9.9-9.9Z" fill="#5a5b63"/>
    <path id="패스_4957" data-name="패스 4957" d="M12.65,22.55a26.04,26.04,0,0,0,4.823.215C19.44,22.622,21.408,20.9,24.2,20.9s4.76,1.722,6.727,1.865a26.04,26.04,0,0,0,4.823-.215v4.125H30.326a3.75,3.75,0,0,0-2.187.7l-.17.122a3.088,3.088,0,0,0-1.274,2.234l-.463,5.191H22.168l-.463-5.19A3.088,3.088,0,0,0,20.43,27.5l-.17-.122a3.75,3.75,0,0,0-2.186-.7H12.65Z" fill="#5a5b63" fill-rule="evenodd"/>
  </g>
</svg>
