<svg id="menu_shotcut_2" xmlns="http://www.w3.org/2000/svg" width="52" height="52" viewBox="0 0 52 52">
  <path id="패스_4951" data-name="패스 4951" d="M0,0H48V48H0Z" fill="none" fill-rule="evenodd"/>
  <path id="패스_4952" data-name="패스 4952" d="M22.285,0h7.43A22.286,22.286,0,0,1,52,22.285v7.43A22.286,22.286,0,0,1,29.715,52H22.284A22.286,22.286,0,0,1,0,29.715V22.284A22.286,22.286,0,0,1,22.285,0Z" fill="#f2f2f5" fill-rule="evenodd"/>
  <g id="그룹_15539" data-name="그룹 15539" transform="translate(2.2 2.198)">
    <rect id="사각형_7536" data-name="사각형 7536" width="26.4" height="26.4" rx="13" transform="translate(10.8 10.801)" fill="#2e83ff"/>
    <path id="패스_4953" data-name="패스 4953" d="M29.6,19.338l.131.034a1.079,1.079,0,0,1,.7,1.358l-.807,2.51H31.2a1.08,1.08,0,1,1,0,2.16H29.4a1.084,1.084,0,0,1-.442-.094l-1.23,3.824a1.08,1.08,0,0,1-2.056,0L24,23.928l-1.667,5.2a1.08,1.08,0,0,1-2,.136l-.053-.136-1.23-3.824a1.084,1.084,0,0,1-.442.094H16.8a1.08,1.08,0,1,1,0-2.16h1.578l-.806-2.51a1.08,1.08,0,0,1,2.056-.66l1.67,5.2,1.667-5.2a1.081,1.081,0,0,1,2-.137l.053.136L26.7,25.276l1.673-5.206a1.08,1.08,0,0,1,1.227-.732Z" fill="#fff"/>
  </g>
</svg>
