<svg id="menu_shotcut_3" xmlns="http://www.w3.org/2000/svg" width="52" height="52" viewBox="0 0 52 52">
  <path id="패스_4946" data-name="패스 4946" d="M0,0H48V48H0Z" fill="none" fill-rule="evenodd"/>
  <path id="패스_4947" data-name="패스 4947" d="M22.285,0h7.43A22.286,22.286,0,0,1,52,22.285v7.43A22.286,22.286,0,0,1,29.715,52H22.284A22.286,22.286,0,0,1,0,29.715V22.284A22.286,22.286,0,0,1,22.285,0Z" fill="#f2f2f5" fill-rule="evenodd"/>
  <g id="그룹_15540" data-name="그룹 15540" transform="translate(2 2)">
    <path id="패스_4948" data-name="패스 4948" d="M24,36.18c7.18,0,13-.167,13-7.311S30.943,17.227,24,17.227s-13,4.5-13,11.642,5.82,7.312,13,7.312Zm-5.1-19.5-1.584-1.683a1.09,1.09,0,0,1,.137-1.65,1.407,1.407,0,0,1,.94-.28c.352.023.745.28,1.1.28C21.767,13.345,21.612,12,24,12s2.275,1.345,4.55,1.345c.361,0,.722-.258,1.083-.282a1.263,1.263,0,0,1,1.393,1.08,1.1,1.1,0,0,1-.306.843l-1.629,1.691H18.9Z" fill="#20bb94" fill-rule="evenodd"/>
    <path id="패스_4949" data-name="패스 4949" d="M28.7,22.764a.982.982,0,0,1,.616,1.246l-.383,1.126h.914a.983.983,0,0,1,0,1.966H28.269l-1.144,3.375a.983.983,0,0,1-1.862,0L24,26.755l-1.26,3.723a.984.984,0,0,1-1.82.107l-.042-.107L19.73,27.1H18.15a.983.983,0,1,1,0-1.966h.913l-.382-1.127a.983.983,0,0,1,1.863-.631L21.8,27.1l1.26-3.72a.984.984,0,0,1,1.82-.107l.042.106L26.193,27.1l1.263-3.725a.983.983,0,0,1,1.247-.615Z" fill="#fff"/>
    <path id="패스_4950" data-name="패스 4950" d="M28.767,16.207a1.34,1.34,0,0,1,0,2.68H19.233a1.34,1.34,0,1,1,0-2.68Z" fill="#0e9f7b"/>
  </g>
</svg>
